<svg width="140" height="44" viewBox="0 0 140 44" fill="none" xmlns="http://www.w3.org/2000/svg">
    <path d="M22.6805 10.7505L29.1522 17.2222L18.6976 27.6768L23.0728 32.0511L37.9027 17.2222L37.3618 16.6813H37.3628L22.6805 2L18.3053 6.37525L5.713 18.9675H1.5L1.50092 25.6729L7.75625 25.6738L22.6805 10.7505Z" fill="white"/>
    <path d="M44.3054 19.2801H38.0492L23.1249 34.2043L16.6001 27.6786L27.0547 17.2249L22.6794 12.8488L7.84961 27.6786L12.2249 32.0538L22.0662 41.8961L23.1249 42.9548L40.0924 25.9864L44.3054 25.9873V19.2801Z" fill="white"/>
    <path d="M46.1875 7.18832H55.7062L61.8469 19.6348H62.0926L68.2333 7.18832H77.752L66.2066 28.1919V37.8261H57.7329V28.1919L46.1875 7.18832Z" fill="white"/>
    <path d="M96.7524 16.7629C96.6699 15.7656 96.2886 14.9873 95.6084 14.4291C94.9273 13.8708 93.897 13.5912 92.5147 13.5912C91.6337 13.5912 90.916 13.6939 90.3577 13.8983C89.7995 14.1027 89.387 14.3787 89.1212 14.7279C88.8544 15.0772 88.7169 15.4759 88.7077 15.9251C88.6867 16.2945 88.7563 16.6263 88.9149 16.9206C89.0735 17.2139 89.3256 17.4788 89.6748 17.7126C90.0222 17.9472 90.4677 18.159 91.0104 18.3487C91.5531 18.5376 92.1975 18.7081 92.9437 18.8575L95.5232 19.3956C97.2612 19.7549 98.7507 20.2288 99.9901 20.8173C101.228 21.4067 102.241 22.097 103.03 22.8899C103.817 23.6819 104.398 24.5729 104.771 25.5602C105.144 26.5474 105.337 27.6245 105.348 28.7905C105.337 30.8053 104.82 32.5112 103.797 33.9073C102.774 35.3034 101.312 36.3658 99.4135 37.0937C97.516 37.8224 95.2353 38.1854 92.5752 38.1854C89.8426 38.1854 87.4602 37.7912 85.4288 37.0038C83.3966 36.2164 81.8208 35.0018 80.7007 33.361C79.5805 31.7202 79.014 29.6182 79.0039 27.0552H87.11C87.1613 27.9921 87.4015 28.7804 87.8314 29.4184C88.2613 30.0564 88.8672 30.5413 89.6501 30.8695C90.4329 31.1986 91.367 31.3636 92.4523 31.3636C93.3635 31.3636 94.1243 31.2536 94.7394 31.0345C95.3536 30.8154 95.8192 30.5111 96.1364 30.1224C96.4536 29.7328 96.6167 29.2901 96.6268 28.7905C96.6167 28.3221 96.46 27.9105 96.1593 27.5567C95.8568 27.2019 95.3627 26.8838 94.6771 26.5987C93.9914 26.3146 93.0656 26.0478 91.8987 25.7985L88.7673 25.1403C85.9834 24.5509 83.7898 23.5664 82.1884 22.185C80.587 20.8036 79.7904 18.9171 79.8014 16.5227C79.7904 14.5776 80.3257 12.8753 81.4065 11.4142C82.4854 9.95299 83.9851 8.81358 85.9046 7.99591C87.8232 7.17824 90.0259 6.76941 92.5128 6.76941C95.052 6.76941 97.2465 7.18283 99.0991 8.01058C100.952 8.83833 102.382 10.0025 103.39 11.504C104.399 13.0055 104.908 14.7582 104.919 16.762H96.7524V16.7629Z" fill="white"/>
    <path d="M122.847 37.8261H110.75V7.18832H122.724C125.958 7.18832 128.755 7.79882 131.115 9.02074C133.472 10.2427 135.296 11.9972 136.579 14.2861C137.863 16.575 138.507 19.3149 138.507 22.5067C138.507 25.6986 137.867 28.4394 136.588 30.7283C135.308 33.0163 133.496 34.7717 131.152 35.9937C128.808 37.2156 126.041 37.8261 122.847 37.8261ZM119.286 30.765H122.541C124.096 30.765 125.424 30.5202 126.525 30.0317C127.624 29.544 128.464 28.7007 129.042 27.5035C129.621 26.3063 129.908 24.6417 129.908 22.5067C129.908 20.3727 129.615 18.7072 129.027 17.5109C128.437 16.3137 127.578 15.4704 126.448 14.9818C125.317 14.4942 123.933 14.2494 122.295 14.2494H119.287V30.765H119.286Z" fill="white"/>
</svg>
