<svg width="140" height="44" viewBox="0 0 140 44" fill="none" xmlns="http://www.w3.org/2000/svg">
<path d="M22.6805 10.7505L29.1522 17.2222L18.6976 27.6768L23.0728 32.0511L37.9027 17.2222L37.3618 16.6813H37.3628L22.6805 2L18.3053 6.37525L5.713 18.9675H1.5L1.50092 25.6729L7.75625 25.6738L22.6805 10.7505Z" fill="#008AE2"/>
<path d="M44.3054 19.28H38.0492L23.1249 34.2042L16.6001 27.6785L27.0547 17.2248L22.6794 12.8486L7.84961 27.6785L12.2249 32.0537L22.0662 41.896L23.1249 42.9547L40.0924 25.9863L44.3054 25.9872V19.28Z" fill="#008AE2"/>
<path d="M46.1875 7.18848H55.7062L61.8469 19.635H62.0926L68.2333 7.18848H77.752L66.2066 28.1921V37.8262H57.7329V28.1921L46.1875 7.18848Z" fill="#008AE2"/>
<path d="M96.7524 16.763C96.6699 15.7657 96.2886 14.9874 95.6084 14.4292C94.9273 13.8709 93.897 13.5914 92.5147 13.5914C91.6337 13.5914 90.916 13.694 90.3577 13.8984C89.7995 14.1029 89.387 14.3788 89.1212 14.728C88.8544 15.0773 88.7169 15.476 88.7077 15.9252C88.6867 16.2946 88.7563 16.6264 88.9149 16.9207C89.0735 17.214 89.3256 17.4789 89.6748 17.7127C90.0222 17.9474 90.4677 18.1591 91.0104 18.3489C91.5531 18.5377 92.1975 18.7082 92.9437 18.8576L95.5232 19.3957C97.2612 19.755 98.7507 20.2289 99.9901 20.8174C101.228 21.4069 102.241 22.0971 103.03 22.89C103.817 23.682 104.398 24.573 104.771 25.5603C105.144 26.5475 105.337 27.6246 105.348 28.7906C105.337 30.8054 104.82 32.5114 103.797 33.9074C102.774 35.3035 101.312 36.3659 99.4135 37.0938C97.516 37.8225 95.2353 38.1855 92.5752 38.1855C89.8426 38.1855 87.4602 37.7914 85.4288 37.0039C83.3966 36.2165 81.8208 35.0019 80.7007 33.3611C79.5805 31.7203 79.014 29.6184 79.0039 27.0554H87.11C87.1613 27.9922 87.4015 28.7805 87.8314 29.4185C88.2613 30.0565 88.8672 30.5414 89.6501 30.8696C90.4329 31.1987 91.367 31.3637 92.4523 31.3637C93.3635 31.3637 94.1243 31.2537 94.7394 31.0346C95.3536 30.8155 95.8192 30.5112 96.1364 30.1225C96.4536 29.7329 96.6167 29.2902 96.6268 28.7906C96.6167 28.3222 96.46 27.9106 96.1593 27.5568C95.8568 27.202 95.3627 26.8839 94.6771 26.5989C93.9914 26.3147 93.0656 26.0479 91.8987 25.7986L88.7673 25.1404C85.9834 24.551 83.7898 23.5665 82.1884 22.1851C80.587 20.8037 79.7904 18.9172 79.8014 16.5229C79.7904 14.5777 80.3257 12.8754 81.4065 11.4143C82.4854 9.95311 83.9851 8.8137 85.9046 7.99603C87.8232 7.17836 90.0259 6.76953 92.5128 6.76953C95.052 6.76953 97.2465 7.18295 99.0991 8.0107C100.952 8.83845 102.382 10.0026 103.39 11.5041C104.399 13.0056 104.908 14.7583 104.919 16.7621H96.7524V16.763Z" fill="#008AE2"/>
<path d="M122.847 37.8262H110.75V7.18848H122.724C125.958 7.18848 128.755 7.79898 131.115 9.02089C133.472 10.2428 135.296 11.9973 136.579 14.2862C137.863 16.5751 138.507 19.3151 138.507 22.5069C138.507 25.6987 137.867 28.4396 136.588 30.7285C135.308 33.0165 133.496 34.7719 131.152 35.9938C128.808 37.2157 126.041 37.8262 122.847 37.8262ZM119.286 30.7651H122.541C124.096 30.7651 125.424 30.5204 126.525 30.0318C127.624 29.5441 128.464 28.7008 129.042 27.5036C129.621 26.3065 129.908 24.6418 129.908 22.5069C129.908 20.3729 129.615 18.7073 129.027 17.5111C128.437 16.3139 127.578 15.4706 126.448 14.982C125.317 14.4943 123.933 14.2496 122.295 14.2496H119.287V30.7651H119.286Z" fill="#008AE2"/>
</svg>
