
<svg width="18" height="18" viewBox="0 0 18 18" fill="none" xmlns="http://www.w3.org/2000/svg">
    <path d="M6.50195 -0.000282775C8.22586 -0.000131147 9.8791 0.684833 11.098 1.90393C12.3169 3.12302 13.0015 4.77638 13.0014 6.50029C13.0012 8.11029 12.4111 9.59024 11.441 10.7302L11.711 11.0002L12.501 11.0002L17.5005 16.0007L16.0004 17.5006L11.0009 12.5001L11.0009 11.7101L10.7309 11.4401C9.59086 12.41 8.11081 12.9999 6.50081 12.9997C4.7769 12.9996 3.12366 12.3146 1.90478 11.0955C0.685904 9.87641 0.00122978 8.22305 0.00138141 6.49915C0.00153304 4.77524 0.686498 3.122 1.90559 1.90312C3.12469 0.684239 4.77805 -0.000434404 6.50195 -0.000282775ZM6.50178 1.99972C4.00178 1.9995 2.0016 3.99932 2.00138 6.49932C2.00116 8.99932 4.00099 10.9995 6.50099 10.9997C9.00099 10.9999 11.0012 9.00011 11.0014 6.50011C11.0016 4.00011 9.00178 1.99994 6.50178 1.99972Z" fill="black"/>
</svg>
