<svg width="18" height="18" viewBox="0 0 18 18" fill="none" xmlns="http://www.w3.org/2000/svg">
    <path d="M9.43437 0.751417C9.55855 0.744504 9.68766 0.765241 9.80024 0.763266C9.84492 0.763266 9.88467 0.763267 9.92441 0.753886C13.9233 0.896578 17.4177 4.53449 17.3427 8.54024C17.3427 8.90364 17.4856 9.4828 16.9065 9.4828C16.3248 9.4828 16.4702 8.90364 16.4702 8.46519C16.4046 7.93491 16.3201 7.44462 16.2098 6.98742C16.0997 6.52774 15.9637 6.10312 15.8042 5.70911C15.5625 5.1181 15.2648 4.59522 14.9058 4.14246C13.8248 2.77775 12.1831 1.99417 9.84937 1.62633C9.48597 1.55128 8.97692 1.62633 8.97692 1.18986C8.97692 0.812147 9.19268 0.748948 9.43437 0.751417ZM14.9411 8.68096C14.2867 8.75354 14.4323 8.17191 14.3617 7.81049C13.9233 5.26128 13.0483 4.31872 10.431 3.73462C10.0651 3.66204 9.48597 3.73462 9.55855 3.15546C9.62915 2.56889 10.2152 2.7896 10.5767 2.86218C13.1962 3.15546 15.3048 5.33633 15.3048 7.81049C15.2319 8.1013 15.4499 8.60789 14.9411 8.68096ZM13.3416 7.37204C13.3416 7.66286 13.3416 8.02872 12.9054 8.1013C12.6146 8.1013 12.4667 7.88356 12.3941 7.59028C12.3215 6.50207 11.7399 5.9155 10.6517 5.77033C10.3584 5.69973 9.99502 5.62715 10.138 5.19117C10.2152 4.89789 10.5016 4.89789 10.7946 4.89789C12.0307 4.82975 13.3416 6.13867 13.3416 7.37204ZM17.4177 15.3742C16.979 16.6149 15.4499 17.8483 14.1415 17.8483C13.9958 17.7757 13.6324 17.7757 13.2666 17.6326C7.59344 15.1584 3.37192 11.1551 1.04293 5.33633C0.247998 3.44381 1.11798 1.77149 3.08333 1.11728C3.4445 0.971627 3.81037 0.971627 4.17376 1.11728C5.04621 1.4081 7.15475 4.3913 7.2298 5.26128C7.30485 5.99054 6.79111 6.35443 6.35513 6.64525C5.48491 7.22886 5.48491 8.02872 5.84855 8.82859C6.71853 10.7167 8.17508 11.957 9.99502 12.8319C10.6517 13.1202 11.3034 13.1202 11.7399 12.3934C12.5373 11.1551 13.5574 11.1551 14.6525 11.957C15.1591 12.3208 15.7407 12.6818 16.2498 13.1202C16.979 13.7019 17.854 14.2134 17.4177 15.3742Z" fill="white"/>
</svg>
