<svg class="mr-2" width="20" height="20" viewBox="0 0 20 20" fill="none"
     xmlns="http://www.w3.org/2000/svg">
    <g clip-path="url(#clip0_2_2530)">
        <path d="M10.0007 10.0001C9.08398 10.0001 8.33398 9.25008 8.33398 8.33342C8.33398 7.41675 9.08398 6.66675 10.0007 6.66675C10.9173 6.66675 11.6673 7.41675 11.6673 8.33342C11.6673 9.25008 10.9173 10.0001 10.0007 10.0001ZM15.0007 8.50008C15.0007 5.47508 12.7923 3.33341 10.0007 3.33341C7.20898 3.33341 5.00065 5.47508 5.00065 8.50008C5.00065 10.4501 6.62565 13.0334 10.0007 16.1167C13.3757 13.0334 15.0007 10.4501 15.0007 8.50008ZM10.0007 1.66675C13.5007 1.66675 16.6673 4.35008 16.6673 8.50008C16.6673 11.2667 14.4423 14.5417 10.0007 18.3334C5.55898 14.5417 3.33398 11.2667 3.33398 8.50008C3.33398 4.35008 6.50065 1.66675 10.0007 1.66675Z"
              fill="black"/>
    </g>
    <defs>
        <clipPath id="clip0_2_2530">
            <rect width="20" height="20" fill="white"/>
        </clipPath>
    </defs>
</svg>