<svg width="21" height="21" viewBox="0 0 21 21" fill="none" xmlns="http://www.w3.org/2000/svg">
    <path d="M17.7474 3.79755C15.8961 1.94313 13.433 0.919734 10.8099 0.916656C5.40126 0.916656 0.99912 5.32033 0.99912 10.7305C0.996042 12.4556 1.45157 14.1462 2.30799 15.6328L0.916016 20.7167L6.1161 19.3508C7.54654 20.1342 9.16242 20.5443 10.8052 20.5443H10.8099C16.2169 20.5443 20.6144 16.1452 20.616 10.7366C20.6198 8.11659 19.598 5.65044 17.7474 3.79755ZM10.8106 18.8907H10.806C9.34248 18.8892 7.90511 18.4937 6.65395 17.7519L6.35771 17.5734L3.27214 18.3852L4.09392 15.3781L3.90002 15.0703C3.08361 13.773 2.65425 12.2702 2.65733 10.7312C2.65733 6.23293 6.31385 2.58102 10.8122 2.58102C12.9928 2.58102 15.0366 3.43052 16.5724 4.96792C18.116 6.50993 18.9632 8.5598 18.9616 10.7374C18.9616 15.2326 15.3043 18.8907 10.8106 18.8907Z" fill="white"/>
    <path d="M15.2783 12.782C15.0305 12.6589 13.8278 12.071 13.6024 11.9841C13.3785 11.9033 13.2161 11.8625 13.0537 12.1103C12.8883 12.3534 12.4182 12.9051 12.2735 13.069C12.1335 13.2329 11.9865 13.2522 11.7433 13.1306C11.5002 13.0075 10.7115 12.7505 9.77349 11.9117C9.04481 11.2592 8.55465 10.4582 8.41076 10.2166C8.26764 9.9719 8.39461 9.83801 8.51926 9.7149C8.6293 9.60486 8.76241 9.42788 8.8863 9.28784C9.00941 9.14241 9.05019 9.04161 9.13406 8.87618C9.21409 8.71536 9.17331 8.57147 9.11329 8.44912C9.05019 8.32755 8.56158 7.11871 8.35459 6.62933C8.15915 6.15302 7.95755 6.21458 7.80596 6.20688C7.6613 6.19919 7.49663 6.19919 7.33735 6.19919C7.17192 6.19919 6.90568 6.25921 6.68177 6.50698C6.45477 6.75167 5.82227 7.34416 5.82227 8.55223C5.82227 9.75876 6.70331 10.9222 6.82642 11.0861C6.948 11.2485 8.55466 13.7238 11.0116 14.7849C11.5979 15.0435 12.0519 15.1904 12.4105 15.3036C12.9968 15.4913 13.5285 15.4613 13.9525 15.3997C14.4242 15.3274 15.4014 14.8088 15.6068 14.2332C15.81 13.6607 15.81 13.1706 15.7484 13.0682C15.6876 12.9651 15.5253 12.9051 15.2783 12.782Z" fill="white"/>
</svg>
