<svg width="44" height="44" viewBox="0 0 44 44" fill="none" xmlns="http://www.w3.org/2000/svg">
    <rect width="44" height="44" rx="22" fill="#0077FF"/>
    <path d="M23.0812 29.6998C14.8129 29.6998 10.0969 23.919 9.90039 14.2998H14.0421C14.1781 21.3601 17.2314 24.3507 19.6499 24.9673V14.2998H23.5497V20.3889C25.938 20.1268 28.4472 17.3521 29.2936 14.2998H33.1935C32.8745 15.8828 32.2387 17.3816 31.3258 18.7026C30.4128 20.0235 29.2425 21.1381 27.8879 21.9767C29.3999 22.7429 30.7355 23.8275 31.8063 25.1587C32.8772 26.49 33.6591 28.0377 34.1004 29.6998H29.8076C29.4114 28.2562 28.6063 26.9639 27.4931 25.9849C26.3799 25.0059 25.0081 24.3838 23.5497 24.1965V29.6998H23.0812V29.6998Z" fill="white"/>
</svg>
