<svg width="44" height="44" viewBox="0 0 44 44" fill="none" xmlns="http://www.w3.org/2000/svg">
    <rect width="44" height="44" rx="22" fill="#48C95F"/>
    <path d="M30.7195 13.2691C28.5463 11.1035 25.6488 9.90039 22.5902 9.90039C16.2317 9.90039 11.0805 15.0337 11.0805 21.3702C11.0805 23.3754 11.6439 25.3806 12.6098 27.065L11 33.0004L17.1171 31.3962C18.8073 32.2785 20.6585 32.7598 22.5902 32.7598C28.9488 32.7598 34.1 27.6264 34.1 21.29C34.0195 18.3223 32.8927 15.4348 30.7195 13.2691ZM28.1439 25.4608C27.9024 26.1025 26.7756 26.7441 26.2122 26.8243C25.7293 26.9046 25.0854 26.9046 24.4415 26.7441C24.039 26.5837 23.4756 26.4233 22.8317 26.1025C19.9341 24.8994 18.0829 22.0118 17.922 21.7712C17.761 21.6108 16.7146 20.2473 16.7146 18.8035C16.7146 17.3598 17.439 16.7181 17.6805 16.3973C17.922 16.0764 18.2439 16.0764 18.4854 16.0764C18.6463 16.0764 18.8878 16.0764 19.0488 16.0764C19.2098 16.0764 19.4512 15.9962 19.6927 16.5577C19.9341 17.1191 20.4976 18.5629 20.578 18.6431C20.6585 18.8035 20.6585 18.9639 20.578 19.1243C20.4976 19.2848 20.4171 19.4452 20.2561 19.6056C20.0951 19.766 19.9341 20.0066 19.8537 20.0868C19.6927 20.2473 19.5317 20.4077 19.6927 20.6483C19.8537 20.9691 20.4171 21.8514 21.3024 22.6535C22.4293 23.616 23.3146 23.9369 23.6366 24.0973C23.9585 24.2577 24.1195 24.1775 24.2805 24.0171C24.4415 23.8566 25.0049 23.215 25.1659 22.8941C25.3268 22.5733 25.5683 22.6535 25.8098 22.7337C26.0512 22.8139 27.5 23.5358 27.7415 23.6962C28.0634 23.8566 28.2244 23.9368 28.3049 24.0171C28.3854 24.2577 28.3854 24.8191 28.1439 25.4608Z" fill="white"/>
</svg>
