<svg width="44" height="44" viewBox="0 0 44 44" fill="none" xmlns="http://www.w3.org/2000/svg">
<rect width="44" height="44" rx="22" fill="#7D519D"/>
<path d="M22.4344 13.7514C22.5585 13.7445 22.6877 13.7652 22.8002 13.7633C22.8449 13.7633 22.8847 13.7633 22.9244 13.7539C26.9233 13.8966 30.4177 17.5345 30.3427 21.5402C30.3427 21.9036 30.4856 22.4828 29.9065 22.4828C29.3248 22.4828 29.4702 21.9036 29.4702 21.4652C29.4046 20.9349 29.3201 20.4446 29.2098 19.9874C29.0997 19.5277 28.9637 19.1031 28.8042 18.7091C28.5625 18.1181 28.2648 17.5952 27.9058 17.1425C26.8248 15.7777 25.1831 14.9942 22.8494 14.6263C22.486 14.5513 21.9769 14.6263 21.9769 14.1899C21.9769 13.8121 22.1927 13.7489 22.4344 13.7514ZM27.9411 21.681C27.2867 21.7535 27.4323 21.1719 27.3617 20.8105C26.9233 18.2613 26.0483 17.3187 23.431 16.7346C23.0651 16.662 22.486 16.7346 22.5585 16.1555C22.6292 15.5689 23.2152 15.7896 23.5767 15.8622C26.1962 16.1555 28.3048 18.3363 28.3048 20.8105C28.2319 21.1013 28.4499 21.6079 27.9411 21.681ZM26.3416 20.372C26.3416 20.6629 26.3416 21.0287 25.9054 21.1013C25.6146 21.1013 25.4667 20.8836 25.3941 20.5903C25.3215 19.5021 24.7399 18.9155 23.6517 18.7703C23.3584 18.6997 22.995 18.6271 23.138 18.1912C23.2152 17.8979 23.5016 17.8979 23.7946 17.8979C25.0307 17.8298 26.3416 19.1387 26.3416 20.372ZM30.4177 28.3742C29.979 29.6149 28.4499 30.8483 27.1415 30.8483C26.9958 30.7757 26.6324 30.7757 26.2666 30.6326C20.5934 28.1584 16.3719 24.1551 14.0429 18.3363C13.248 16.4438 14.118 14.7715 16.0833 14.1173C16.4445 13.9716 16.8104 13.9716 17.1738 14.1173C18.0462 14.4081 20.1548 17.3913 20.2298 18.2613C20.3048 18.9905 19.7911 19.3544 19.3551 19.6452C18.4849 20.2289 18.4849 21.0287 18.8485 21.8286C19.7185 23.7167 21.1751 24.957 22.995 25.8319C23.6517 26.1202 24.3034 26.1202 24.7399 25.3934C25.5373 24.1551 26.5574 24.1551 27.6525 24.957C28.1591 25.3208 28.7407 25.6818 29.2498 26.1202C29.979 26.7019 30.854 27.2134 30.4177 28.3742Z" fill="white"/>
</svg>
